<svg width="24" height="24" viewBox="0 0 24 24" fill="none" xmlns="http://www.w3.org/2000/svg">
<path d="M20 12H4" stroke="#4A4A4A" stroke-linecap="round" stroke-linejoin="round"/>
<path d="M6.76 5.97125L4 12V17.25C4 17.7141 4.16857 18.1592 4.46863 18.4874C4.76869 18.8156 5.17565 19 5.6 19H18.4C18.8243 19 19.2313 18.8156 19.5314 18.4874C19.8314 18.1592 20 17.7141 20 17.25V12L17.24 5.97125C17.1075 5.67969 16.9033 5.43432 16.6504 5.26274C16.3974 5.09116 16.1057 5.00017 15.808 5H8.192C7.89433 5.00017 7.60261 5.09116 7.34964 5.26274C7.09666 5.43432 6.89246 5.67969 6.76 5.97125Z" stroke="#4A4A4A" stroke-linecap="round" stroke-linejoin="round"/>
<path d="M7.19995 15.5H7.20843" stroke="#4A4A4A" stroke-linecap="round" stroke-linejoin="round"/>
<path d="M10.4001 15.5H10.4086" stroke="#4A4A4A" stroke-linecap="round" stroke-linejoin="round"/>
</svg>
