<svg width="24" height="24" viewBox="0 0 24 24" fill="none" xmlns="http://www.w3.org/2000/svg">
<path d="M17.3333 20.0001C18.8061 20.0001 20 18.8062 20 17.3334C20 15.8607 18.8061 14.6667 17.3333 14.6667C15.8605 14.6667 14.6666 15.8607 14.6666 17.3334C14.6666 18.8062 15.8605 20.0001 17.3333 20.0001Z" stroke="white" stroke-linecap="round" stroke-linejoin="round"/>
<path d="M6.66667 9.33333C8.13943 9.33333 9.33333 8.13943 9.33333 6.66667C9.33333 5.19391 8.13943 4 6.66667 4C5.19391 4 4 5.19391 4 6.66667C4 8.13943 5.19391 9.33333 6.66667 9.33333Z" stroke="white" stroke-linecap="round" stroke-linejoin="round"/>
<path d="M12.8889 6.6665H15.5556C16.0271 6.6665 16.4793 6.8538 16.8127 7.1872C17.1461 7.5206 17.3334 7.97279 17.3334 8.44428V14.6665" stroke="white" stroke-linecap="round" stroke-linejoin="round"/>
<path d="M6.66675 9.3335V20.0002" stroke="white" stroke-linecap="round" stroke-linejoin="round"/>
</svg>
