<svg width="24" height="24" viewBox="0 0 24 24" fill="none" xmlns="http://www.w3.org/2000/svg">
<path d="M16.6667 8.80081C16.6667 7.52755 16.175 6.30645 15.2998 5.40612C14.4247 4.5058 13.2377 4 12 4C10.7623 4 9.57534 4.5058 8.70017 5.40612C7.825 6.30645 7.33333 7.52755 7.33333 8.80081C7.33333 14.4017 5 16.002 5 16.002H19C19 16.002 16.6667 14.4017 16.6667 8.80081Z" stroke="white" stroke-linecap="round" stroke-linejoin="round"/>
<path d="M13.3459 19.2026C13.2092 19.4451 13.0129 19.6464 12.7767 19.7864C12.5406 19.9263 12.2729 19.9999 12.0003 19.9999C11.7278 19.9999 11.4601 19.9263 11.2239 19.7864C10.9878 19.6464 10.7915 19.4451 10.6548 19.2026" stroke="white" stroke-linecap="round" stroke-linejoin="round"/>
</svg>
