<svg width="24" height="24" viewBox="0 0 24 24" fill="none" xmlns="http://www.w3.org/2000/svg">
<path d="M6.28571 20.0001C7.54808 20.0001 8.57143 18.9853 8.57143 17.7335C8.57143 16.4816 7.54808 15.4668 6.28571 15.4668C5.02335 15.4668 4 16.4816 4 17.7335C4 18.9853 5.02335 20.0001 6.28571 20.0001Z" stroke="white" stroke-linecap="round" stroke-linejoin="round"/>
<path d="M17.7143 20.0001C18.9767 20.0001 20 18.9853 20 17.7335C20 16.4816 18.9767 15.4668 17.7143 15.4668C16.4519 15.4668 15.4286 16.4816 15.4286 17.7335C15.4286 18.9853 16.4519 20.0001 17.7143 20.0001Z" stroke="white" stroke-linecap="round" stroke-linejoin="round"/>
<path d="M11.9999 7.53333C13.2623 7.53333 14.2857 6.51851 14.2857 5.26667C14.2857 4.01482 13.2623 3 11.9999 3C10.7376 3 9.71423 4.01482 9.71423 5.26667C9.71423 6.51851 10.7376 7.53333 11.9999 7.53333Z" stroke="white" stroke-linecap="round" stroke-linejoin="round"/>
<path d="M12 7.53345L12 10.9334" stroke="white" stroke-linecap="round" stroke-linejoin="round"/>
<path d="M12 11.311H16.127C16.5985 11.311 17.0507 11.4968 17.3841 11.8274C17.7175 12.158 17.9048 12.6064 17.9048 13.074V15.4667" stroke="white" stroke-linecap="round" stroke-linejoin="round"/>
<path d="M12.1906 11.311H8.06351C7.59201 11.311 7.13983 11.4968 6.80643 11.8274C6.47303 12.158 6.28573 12.6064 6.28573 13.074V15.4667" stroke="white" stroke-linecap="round" stroke-linejoin="round"/>
</svg>
