<svg width="24" height="24" viewBox="0 0 24 24" fill="none" xmlns="http://www.w3.org/2000/svg">
<path d="M18.4 4H5.6C4.71634 4 4 4.71634 4 5.6V8.8C4 9.68366 4.71634 10.4 5.6 10.4H18.4C19.2837 10.4 20 9.68366 20 8.8V5.6C20 4.71634 19.2837 4 18.4 4Z" stroke="white" stroke-linecap="round" stroke-linejoin="round"/>
<path d="M18.4 13.6001H5.6C4.71634 13.6001 4 14.3164 4 15.2001V18.4001C4 19.2838 4.71634 20.0001 5.6 20.0001H18.4C19.2837 20.0001 20 19.2838 20 18.4001V15.2001C20 14.3164 19.2837 13.6001 18.4 13.6001Z" stroke="white" stroke-linecap="round" stroke-linejoin="round"/>
<path d="M7.20007 7.19995H7.20865" stroke="white" stroke-linecap="round" stroke-linejoin="round"/>
<path d="M7.20007 16.8H7.20865" stroke="white" stroke-linecap="round" stroke-linejoin="round"/>
</svg>
