<svg width="24" height="24" viewBox="0 0 24 24" fill="none" xmlns="http://www.w3.org/2000/svg">
<path d="M15.5 5.6001H17.25C17.7141 5.6001 18.1592 5.76867 18.4874 6.06872C18.8156 6.36878 19 6.77574 19 7.20008V18.4C19 18.8243 18.8156 19.2313 18.4874 19.5313C18.1592 19.8314 17.7141 19.9999 17.25 19.9999H6.75C6.28587 19.9999 5.84075 19.8314 5.51256 19.5313C5.18437 19.2313 5 18.8243 5 18.4V7.20008C5 6.77574 5.18437 6.36878 5.51256 6.06872C5.84075 5.76867 6.28587 5.6001 6.75 5.6001H8.5" stroke="#4A4A4A" stroke-linecap="round" stroke-linejoin="round"/>
<path d="M14.625 4H9.375C8.89175 4 8.5 4.35817 8.5 4.79999V6.39997C8.5 6.8418 8.89175 7.19997 9.375 7.19997H14.625C15.1082 7.19997 15.5 6.8418 15.5 6.39997V4.79999C15.5 4.35817 15.1082 4 14.625 4Z" stroke="#4A4A4A" stroke-linecap="round" stroke-linejoin="round"/>
</svg>
