<svg width="32" height="32" viewBox="0 0 32 32" fill="none" xmlns="http://www.w3.org/2000/svg">
<path d="M21.5 25.5625V23.5C21.5 22.406 21.0654 21.3568 20.2918 20.5832C19.5182 19.8096 18.469 19.375 17.375 19.375H9.125C8.03098 19.375 6.98177 19.8096 6.20818 20.5832C5.4346 21.3568 5 22.406 5 23.5V25.5625" stroke="#2C2C2C" stroke-width="1.2" stroke-linecap="round" stroke-linejoin="round"/>
<path d="M12.9063 14.5625C14.9946 14.5625 16.6875 12.8696 16.6875 10.7813C16.6875 8.69292 14.9946 7 12.9063 7C10.8179 7 9.125 8.69292 9.125 10.7813C9.125 12.8696 10.8179 14.5625 12.9063 14.5625Z" stroke="#2C2C2C" stroke-width="1.2" stroke-linecap="round" stroke-linejoin="round"/>
<path d="M27 25V22.615C26.9993 21.5581 26.7044 20.5314 26.1614 19.6961C25.6184 18.8608 24.8581 18.2642 24 18" stroke="#2C2C2C" stroke-width="1.2" stroke-linecap="round" stroke-linejoin="round"/>
<path d="M20 7C20.8582 7.22741 21.6188 7.74395 22.162 8.46819C22.7052 9.19243 23 10.0832 23 11C23 11.9168 22.7052 12.8076 22.162 13.5318C21.6188 14.256 20.8582 14.7726 20 15" stroke="#2C2C2C" stroke-width="1.2" stroke-linecap="round" stroke-linejoin="round"/>
</svg>
