<svg width="32" height="32" viewBox="0 0 32 32" fill="none" xmlns="http://www.w3.org/2000/svg">
<path d="M27 16H20.4L18.2 19.375H13.8L11.6 16H5" stroke="#2C2C2C" stroke-width="1.2" stroke-linecap="round" stroke-linejoin="round"/>
<path d="M8.795 8.24875L5 16V22.75C5 23.3467 5.23178 23.919 5.64436 24.341C6.05695 24.7629 6.61652 25 7.2 25H24.8C25.3835 25 25.9431 24.7629 26.3556 24.341C26.7682 23.919 27 23.3467 27 22.75V16L23.205 8.24875C23.0229 7.87389 22.7421 7.55842 22.3943 7.33781C22.0464 7.11721 21.6453 7.00022 21.236 7H10.764C10.3547 7.00022 9.95359 7.11721 9.60575 7.33781C9.25791 7.55842 8.97713 7.87389 8.795 8.24875Z" stroke="#2C2C2C" stroke-width="1.2" stroke-linecap="round" stroke-linejoin="round"/>
</svg>
