<svg width="17" height="16" viewBox="0 0 17 16" fill="none" xmlns="http://www.w3.org/2000/svg">
<circle cx="8.49961" cy="7.99961" r="6.4" fill="#ACACAC"/>
<path d="M7.10352 6.5598C7.21637 6.23901 7.43911 5.9685 7.73229 5.79619C8.02548 5.62388 8.37019 5.56089 8.70536 5.61839C9.04054 5.67588 9.34455 5.85014 9.56355 6.1103C9.78256 6.37046 9.90242 6.69974 9.90192 7.0398C9.90192 7.9998 8.46192 8.4798 8.46192 8.4798" fill="#ACACAC"/>
<path d="M7.10352 6.5598C7.21637 6.23901 7.43911 5.9685 7.73229 5.79619C8.02548 5.62388 8.37019 5.56089 8.70536 5.61839C9.04054 5.67588 9.34455 5.85014 9.56355 6.1103C9.78256 6.37046 9.90242 6.69974 9.90192 7.0398C9.90192 7.9998 8.46192 8.4798 8.46192 8.4798" stroke="white" stroke-linecap="round" stroke-linejoin="round"/>
<path d="M8.5 10.3994H8.5048" stroke="white" stroke-linecap="round" stroke-linejoin="round"/>
</svg>
