<svg width="24" height="24" viewBox="0 0 24 24" fill="none" xmlns="http://www.w3.org/2000/svg">
<path d="M12 10C13.6569 10 15 8.65685 15 7C15 5.34315 13.6569 4 12 4C10.3431 4 9 5.34315 9 7C9 8.65685 10.3431 10 12 10Z" stroke="#2C2C2C" stroke-linecap="round" stroke-linejoin="round"/>
<path d="M5.92952 14.2183C6.26705 13.1929 7.22465 12.5 8.30418 12.5H15.8198C16.8486 12.5 17.7724 13.1303 18.1476 14.0883L18.9309 16.0883C19.5731 17.728 18.3641 19.5 16.6031 19.5H7.64585C5.9434 19.5 4.73889 17.8354 5.27119 16.2183L5.92952 14.2183Z" stroke="#2C2C2C"/>
</svg>
