<svg width="32" height="32" viewBox="0 0 32 32" fill="none" xmlns="http://www.w3.org/2000/svg">
<path d="M6 10.4444C6 8.34889 6 7.30222 6.65111 6.65111C7.30222 6 8.34889 6 10.4444 6H21.5556C23.6511 6 24.6978 6 25.3489 6.65111C26 7.30222 26 8.34889 26 10.4444V21.5556C26 23.6511 26 24.6978 25.3489 25.3489C24.6978 26 23.6511 26 21.5556 26H10.4444C8.34889 26 7.30222 26 6.65111 25.3489C6 24.6978 6 23.6511 6 21.5556V10.4444Z" stroke="#2C2C2C" stroke-width="1.2"/>
<path d="M6 19.8889H26M12.6667 12.1111V19.8889M19.3333 6V12.1111M19.3333 19.8889V26M6 12.1111H26" stroke="#2C2C2C" stroke-width="1.2" stroke-linecap="round"/>
</svg>
