<svg width="6" height="6" viewBox="0 0 6 6" fill="none" xmlns="http://www.w3.org/2000/svg">
<path d="M2.09182 0.795085C2.37768 -0.0846887 3.62232 -0.0846885 3.90818 0.795085C4.03602 1.18853 4.40266 1.45492 4.81636 1.45492C5.74141 1.45492 6.12602 2.63864 5.37764 3.18237C5.04296 3.42554 4.90291 3.85655 5.03075 4.25C5.3166 5.12977 4.30967 5.86136 3.56129 5.31763C3.2266 5.07446 2.7734 5.07446 2.43871 5.31763C1.69033 5.86136 0.683396 5.12977 0.969252 4.25C1.09709 3.85655 0.957044 3.42554 0.622359 3.18237C-0.126021 2.63864 0.258595 1.45492 1.18364 1.45492C1.59734 1.45492 1.96398 1.18853 2.09182 0.795085Z" fill="#FF7997"/>
</svg>
