<svg width="214" height="32" viewBox="0 0 214 32" fill="none" xmlns="http://www.w3.org/2000/svg">
<g clip-path="url(#clip0_206_23942)">
<g clip-path="url(#clip1_206_23942)">
<path d="M41.2625 17.3997C41.2625 10.5523 46.2985 5.5163 53.434 5.5163C59.554 5.5163 64.1647 9.22127 65.3173 14.6415H59.3345C58.4288 12.295 56.2882 10.7581 53.4203 10.7581C49.5369 10.7581 46.9846 13.5575 46.9846 17.3997C46.9846 21.2419 49.5369 24.0412 53.4203 24.0412C56.2882 24.0412 58.4151 22.5043 59.3345 20.1578H65.3173C64.1647 25.578 59.5403 29.283 53.434 29.283C46.2985 29.283 41.2625 24.247 41.2625 17.3997Z" fill="black"/>
<path d="M68.6107 4.00684H73.8525V28.8302H68.6107V4.00684Z" fill="black"/>
<path d="M77.1458 20.199C77.1458 14.9571 80.988 11.1012 86.4494 11.1012C91.9108 11.1012 95.753 14.9434 95.753 20.199C95.753 25.4545 91.9108 29.283 86.4494 29.283C80.988 29.283 77.1458 25.4408 77.1458 20.199ZM90.4288 20.199C90.4288 17.7153 88.8233 16 86.4494 16C84.0755 16 82.4563 17.7153 82.4563 20.199C82.4563 22.6827 84.0618 24.3979 86.4494 24.3979C88.8371 24.3979 90.4288 22.6827 90.4288 20.199Z" fill="black"/>
<path d="M96.4528 11.554H102.079L105.894 23.8216L109.708 11.554H115.197L109.009 28.8302H102.642L96.4528 11.554Z" fill="black"/>
<path d="M123.197 11.554H117.955V28.8302H123.197V11.554Z" fill="black"/>
<path d="M127.19 19.0051C127.19 13.6261 130.333 11.1012 134.957 11.1012C139.582 11.1012 142.683 13.5849 142.724 19.0463V19.1561H137.482V19.0189C137.482 16.7135 136.439 16.0137 134.971 16.0137C133.503 16.0137 132.46 16.7135 132.46 19.0189V28.8439H127.218V19.0189L127.19 19.0051Z" fill="black"/>
<path d="M150.779 18.5935C150.779 11.458 156.556 5.5163 164.13 5.5163C169.66 5.5163 174.161 8.69983 175.218 13.6261H172.556C171.43 9.9211 167.863 7.82161 163.924 7.82161C157.804 7.82161 153.331 12.789 153.331 18.4151C153.331 23.6569 157.214 26.9777 162.25 26.9777C166.271 26.9777 169.948 24.8782 171.801 21.1732H174.463C172.254 26.4151 167.602 29.283 162.154 29.283C155.691 29.283 150.792 25.1252 150.792 18.5798L150.779 18.5935Z" fill="#00AAFF"/>
<path d="M207.575 12.1852C207.575 12.8851 207.506 13.5849 207.369 14.3122L204.569 28.8302H202.017L204.844 14.1063C204.954 13.5849 205.022 12.9811 205.022 12.5283C205.022 9.48199 202.991 7.80789 200.096 7.80789C197.201 7.80789 195.101 9.59177 194.401 13.0909L191.286 28.8302H188.734L191.602 14.1063C191.712 13.5437 191.78 13.0909 191.78 12.5695C191.78 9.52316 189.75 7.82161 186.813 7.82161C184.151 7.82161 181.818 9.56432 181.146 13.1046L178.141 28.8439H175.588L178.662 12.8988C179.609 7.97256 182.93 5.5163 186.744 5.5163C190.134 5.5163 192.59 7.09434 193.455 9.85249C194.923 6.9434 197.544 5.5163 200.412 5.5163C204.542 5.5163 207.575 7.82161 207.575 12.199V12.1852Z" fill="#00AAFF"/>
<path d="M120.59 2.23546L117.301 5.52478L120.59 8.8141L123.88 5.52478L120.59 2.23546Z" fill="black"/>
<path d="M17.3125 15.9947L16.3616 16.9456L21.9699 22.5539L22.9208 21.603L17.3125 15.9947Z" fill="#00AAFF"/>
<path d="M31.5472 12.9674C33.0978 11.4168 33.0978 8.90563 31.5472 7.35503C29.9966 5.80443 27.4854 5.80443 25.9348 7.35503L22.9022 10.3876L28.5146 16L31.5472 12.9674Z" fill="#00AAFF"/>
<path d="M8.08232 25.235C6.53172 26.7856 6.53172 29.2967 8.08232 30.8473C9.63292 32.3979 12.1441 32.3979 13.6947 30.8473L16.3705 28.1715L10.7581 22.5591L8.08232 25.235Z" fill="#00AAFF"/>
<path d="M24.6312 6.76499C26.1818 5.21439 26.1818 2.70324 24.6312 1.15264C23.0806 -0.397965 20.5694 -0.397965 19.0188 1.15264L16.343 3.82845L21.9554 9.4408L24.6312 6.76499Z" fill="#00AAFF"/>
<path d="M10.7534 9.43552L9.80249 10.3864L15.4108 15.9948L16.3617 15.0439L10.7534 9.43552Z" fill="#00AAFF"/>
<path d="M1.16637 19.0326C-0.384232 20.5832 -0.384232 23.0943 1.16637 24.6449C2.71697 26.1955 5.22812 26.1955 6.77872 24.6449L9.81131 21.6123L4.19896 16L1.16637 19.0326Z" fill="#00AAFF"/>
<path d="M6.76499 7.36876C5.21438 5.81816 2.70324 5.81816 1.15264 7.36876C-0.397965 8.91936 -0.397965 11.4305 1.15264 12.9811L4.18523 16.0137L9.79757 10.4014L6.76499 7.36876Z" fill="#00B57D"/>
<path d="M15.4108 15.9946L9.80243 21.603L10.7533 22.5539L16.3617 16.9455L15.4108 15.9946Z" fill="#00B57D"/>
<path d="M19.0326 30.8336C20.5832 32.3842 23.0943 32.3842 24.6449 30.8336C26.1955 29.283 26.1955 26.7718 24.6449 25.2212L21.9691 22.5454L16.3568 28.1578L19.0326 30.8336Z" fill="#00B57D"/>
<path d="M16.3616 16.9455L10.7533 22.5538L16.3616 28.1622L21.97 22.5538L16.3616 16.9455Z" fill="#0055FF"/>
<path d="M9.80255 10.3863L4.19421 15.9946L9.80255 21.603L15.4109 15.9946L9.80255 10.3863Z" fill="#0055FF"/>
<path d="M21.97 9.43554L16.3616 15.0439L17.3125 15.9948L22.9209 10.3864L21.97 9.43554Z" fill="#00B57D"/>
<path d="M28.5146 16L22.9022 21.6123L25.9348 24.6449C27.4854 26.1955 29.9966 26.1955 31.5472 24.6449C33.0978 23.0943 33.0978 20.5832 31.5472 19.0326L28.5146 16Z" fill="#00B57D"/>
<path d="M13.6809 1.16637C12.1303 -0.384232 9.61919 -0.384232 8.06859 1.16637C6.51799 2.71697 6.51799 5.22812 8.06859 6.77872L10.7444 9.45453L16.3568 3.84218L13.6809 1.16637Z" fill="#00B57D"/>
<path d="M22.9208 10.3864L17.3124 15.9948L22.9208 21.6031L28.5291 15.9948L22.9208 10.3864Z" fill="#0055FF"/>
<path d="M16.3617 3.82721L10.7534 9.43555L16.3617 15.0439L21.97 9.43555L16.3617 3.82721Z" fill="#0055FF"/>
</g>
</g>
<defs>
<clipPath id="clip0_206_23942">
<rect width="214" height="32" fill="white"/>
</clipPath>
<clipPath id="clip1_206_23942">
<rect width="207.575" height="32" fill="white"/>
</clipPath>
</defs>
</svg>
